<svg id="Layer_1" data-name="Layer 1" xmlns="http://www.w3.org/2000/svg" viewBox="0 0 48 38.4"><defs><style>.cls-1{fill:#6d7177;}</style></defs><title>icon2</title><rect class="cls-1" y="10.74" width="12.45" height="27.66" rx="2.25" ry="2.25"/><path class="cls-1" d="M44.91,17.59H28.61l1.17-1.92a19.64,19.64,0,0,0,2-4.57L32.15,10A4,4,0,0,0,30,5.32L29.23,5a1.44,1.44,0,0,0-1.88.51A40.22,40.22,0,0,1,18,16.53l-1.28,1.06V41.15H41.11A2.73,2.73,0,0,0,44,38.57v-.73a2.73,2.73,0,0,0-2.85-2.58h1.8a2.84,2.84,0,0,0,3-2.69v-.52a2.84,2.84,0,0,0-3-2.69h.88a2.89,2.89,0,0,0,3-2.73v-.42a2.89,2.89,0,0,0-3-2.73h1.12A3,3,0,0,0,48,20.68v-.3A3,3,0,0,0,44.91,17.59Z" transform="translate(0 -4.8)"/></svg>