<svg id="Layer_1" data-name="Layer 1" xmlns="http://www.w3.org/2000/svg" viewBox="0 0 48 39.46"><defs><style>.cls-1{fill:#6d7177;}</style></defs><title>icon3</title><path class="cls-1" d="M32.3,28.7A10.38,10.38,0,0,1,26.4,9.75l5.33-3.66A10.4,10.4,0,0,1,46.18,8.78h0A10.4,10.4,0,0,1,43.5,23.22l-5.34,3.66A10.33,10.33,0,0,1,32.3,28.7ZM37.61,9a5.66,5.66,0,0,0-3.21,1l-5.33,3.66A5.69,5.69,0,0,0,35.5,23l5.34-3.66a5.7,5.7,0,0,0,1.47-7.91h0A5.7,5.7,0,0,0,37.61,9Z" transform="translate(0 -4.27)"/><path class="cls-1" d="M10.4,43.73A10.39,10.39,0,0,1,4.5,24.78l5.33-3.66a10.41,10.41,0,0,1,14.44,2.68,10.4,10.4,0,0,1-2.69,14.45l-5.33,3.66A10.34,10.34,0,0,1,10.4,43.73ZM15.69,24a5.61,5.61,0,0,0-3.19,1L7.16,28.65A5.69,5.69,0,0,0,13.6,38l5.33-3.66a5.71,5.71,0,0,0,1.47-7.91h0a5.63,5.63,0,0,0-3.65-2.37A5.81,5.81,0,0,0,15.69,24Z" transform="translate(0 -4.27)"/><path class="cls-1" d="M16.29,31.64A2.35,2.35,0,0,1,15,27.36L30.23,16.87a2.35,2.35,0,1,1,2.66,3.87L17.62,31.23A2.33,2.33,0,0,1,16.29,31.64Z" transform="translate(0 -4.27)"/></svg>