<svg xmlns="http://www.w3.org/2000/svg" viewBox="0 0 280.05 93.54"><defs><style>.cls-1{fill:#fff;}</style></defs><title>marine_logo_2</title><g id="Слой_2" data-name="Слой 2"><g id="Layer_1" data-name="Layer 1"><path class="cls-1" d="M204,27.36l-8.18-7.85S163.56,24,140.29,39.24c0,0,41.9-17,52.24-15.78Z"/><path class="cls-1" d="M229.58,40.16,219,23.2s-44.92,7.06-75.08,24.39c0,0,59.28-20.25,72.1-15.68Z"/><path class="cls-1" d="M257.14,82.51a4.79,4.79,0,0,1,1.51.39h-1.51Z"/><polyline class="cls-1" points="158.18 8.09 122.5 8.09 122.5 5.53 157.14 5.53"/><path class="cls-1" d="M164.86,5.53h94.85v23.3c-.85,0-1.7-.08-2.57-.1V8.09H166.57"/><path class="cls-1" d="M259.71,62.86v17a7.7,7.7,0,0,0-2.57-.57V66c.74-.93,1.58-2,2.57-3.12"/><path class="cls-1" d="M232.1,64.27v.25c0,.15,0,.29,0,.43v.36a.34.34,0,0,1-.21.32l-.09,0a.06.06,0,0,1-.05,0,.44.44,0,0,1,0-.09.91.91,0,0,0-.1-.32.29.29,0,0,0-.24-.13h-.09a.39.39,0,0,0-.28.32v.06l-.06.16a.07.07,0,0,1,0,0c-.08-.05-.19-.08-.24-.15a.38.38,0,0,1-.06-.15.21.21,0,0,1,0-.06v0s0,0,0-.05c0-.24,0-.47,0-.71v-.33c0-.21,0-.44,0-.65v-.16h0v0a.38.38,0,0,1,.19-.34.26.26,0,0,1,.14,0h0s0,.05,0,.1v.06a.91.91,0,0,0,0,.12.57.57,0,0,0,.06.17.29.29,0,0,0,.14.09l.14,0c.17,0,.32-.1.35-.38,0-.07,0-.13.05-.19L232,63a1.41,1.41,0,0,1,.06.3c0,.31,0,.63,0,.94"/><path class="cls-1" d="M232.1,50.92c0,.42,0,.85,0,1.26a.34.34,0,0,1-.21.32l-.05,0h0a0,0,0,0,1,0,0h0a.2.2,0,0,1,0-.08.91.91,0,0,0-.1-.32.29.29,0,0,0-.24-.14h-.09a.38.38,0,0,0-.27.29v.08c0,.07-.05.13-.07.2s-.19-.08-.24-.16a.48.48,0,0,1-.07-.26.08.08,0,0,1,0,0q0-.83,0-1.66v-.11c0-.25.07-.37.24-.43l.08,0c.05,0,.06,0,.07.12a.7.7,0,0,0,.11.33.27.27,0,0,0,.23.12h.09a.38.38,0,0,0,.26-.29.34.34,0,0,1,0-.08c0-.06,0-.13.06-.19l.24.08a1.37,1.37,0,0,1,.08.29c0,.23,0,.46,0,.68"/><path class="cls-1" d="M232.1,54.68c0,.15,0,.3,0,.45v1.4a.39.39,0,0,1-.19.38.15.15,0,0,1-.09,0h0l-.05,0v0a.06.06,0,0,0,0,0,.34.34,0,0,0,0-.08c0-.22-.06-.41-.35-.41a.32.32,0,0,0-.35.29,1,1,0,0,0,0,.2.16.16,0,0,1,0,.06h0a.3.3,0,0,1-.14,0,.37.37,0,0,1-.21-.36v-.44c0-.13,0-.25,0-.38,0-.29,0-.59,0-.88v-.27a.39.39,0,0,1,.12-.3l.06-.05a.26.26,0,0,1,.14,0h0s0,0,0,.06a.24.24,0,0,1,0,.06.42.42,0,0,0,0,.13.3.3,0,0,0,.21.28l.13,0a.29.29,0,0,0,.13,0,.38.38,0,0,0,.22-.35.45.45,0,0,1,0-.12l0-.08.26.09s0,.07,0,.1a.74.74,0,0,1,0,.2v.08a0,0,0,0,1,0,0"/><path class="cls-1" d="M232.1,59.06c0,.15,0,.3,0,.45v1.4c0,.21-.07.34-.21.39l-.11,0h-.05v-.07a.39.39,0,0,1,0-.08h0a.8.8,0,0,0-.1-.3.33.33,0,0,0-.26-.1A.31.31,0,0,0,231,61s0,0,0,.07h0a1.2,1.2,0,0,0,0,.22h0a.35.35,0,0,1-.35-.36h0v-.1c0-.23,0-.47,0-.7V60c0-.27,0-.54,0-.82v-.11c0-.25.07-.37.24-.44l.08,0s0,0,.05,0a.32.32,0,0,1,0,.09.7.7,0,0,0,.11.33.27.27,0,0,0,.23.12h.09a.37.37,0,0,0,.26-.28.36.36,0,0,1,0-.09,1.16,1.16,0,0,1,0-.15.05.05,0,0,1,0,0l.24.08a1.34,1.34,0,0,1,.08.3h0s0,0,0,.05"/><path class="cls-1" d="M232.53,47a1.12,1.12,0,0,0-.28-.71,1.14,1.14,0,0,0-1.77.07.47.47,0,0,0-.08.12,1.07,1.07,0,0,0-.15.57,1.14,1.14,0,1,0,2.28,0,.08.08,0,0,0,0,0m0,21a1.11,1.11,0,0,0-.28-.71,1.14,1.14,0,0,0-1.77.06.49.49,0,0,0-.08.12,1.07,1.07,0,0,0-.15.56,1.14,1.14,0,1,0,2.28,0,.09.09,0,0,0,0,0m0,0a1.11,1.11,0,0,0-.28-.71,1.14,1.14,0,0,0-1.77.06.49.49,0,0,0-.08.12,1.07,1.07,0,0,0-.15.56,1.14,1.14,0,1,0,2.28,0,.09.09,0,0,0,0,0m0,0a1.11,1.11,0,0,0-.28-.71,1.14,1.14,0,0,0-1.77.06.49.49,0,0,0-.08.12,1.07,1.07,0,0,0-.15.56,1.14,1.14,0,1,0,2.28,0,.09.09,0,0,0,0,0m0,0a1.11,1.11,0,0,0-.28-.71,1.14,1.14,0,0,0-1.77.06.49.49,0,0,0-.08.12,1.07,1.07,0,0,0-.15.56,1.14,1.14,0,1,0,2.28,0,.09.09,0,0,0,0,0m0,0a1.11,1.11,0,0,0-.28-.71,1.14,1.14,0,0,0-1.77.06.49.49,0,0,0-.08.12,1.07,1.07,0,0,0-.15.56,1.14,1.14,0,1,0,2.28,0,.09.09,0,0,0,0,0m0,0a1.11,1.11,0,0,0-.28-.71,1.14,1.14,0,0,0-1.77.06.49.49,0,0,0-.08.12,1.07,1.07,0,0,0-.15.56,1.14,1.14,0,1,0,2.28,0,.09.09,0,0,0,0,0m0,0a1.11,1.11,0,0,0-.28-.71,1.14,1.14,0,0,0-1.77.06.49.49,0,0,0-.08.12,1.07,1.07,0,0,0-.15.56,1.14,1.14,0,1,0,2.28,0,.09.09,0,0,0,0,0M231.4,48.13A1.14,1.14,0,0,0,232.54,47a.08.08,0,0,0,0,0,1.12,1.12,0,0,0-.28-.71,1.14,1.14,0,0,0-1.77.07.47.47,0,0,0-.08.12,1.07,1.07,0,0,0-.15.57,1.14,1.14,0,0,0,1.14,1.14m.86,19.07a1.14,1.14,0,0,0-1.77.06.49.49,0,0,0-.08.12,1.07,1.07,0,0,0-.15.56,1.14,1.14,0,1,0,2.28,0,.09.09,0,0,0,0,0,1.11,1.11,0,0,0-.28-.71m-.86-19.07A1.14,1.14,0,0,0,232.54,47a.08.08,0,0,0,0,0,1.12,1.12,0,0,0-.28-.71,1.14,1.14,0,0,0-1.77.07.47.47,0,0,0-.08.12,1.07,1.07,0,0,0-.15.57,1.14,1.14,0,0,0,1.14,1.14m.86,19.07a1.14,1.14,0,0,0-1.77.06.49.49,0,0,0-.08.12,1.07,1.07,0,0,0-.15.56,1.14,1.14,0,1,0,2.28,0,.09.09,0,0,0,0,0,1.11,1.11,0,0,0-.28-.71m.28.71a1.11,1.11,0,0,0-.28-.71,1.14,1.14,0,0,0-1.77.06.49.49,0,0,0-.08.12,1.07,1.07,0,0,0-.15.56,1.14,1.14,0,1,0,2.28,0,.09.09,0,0,0,0,0m0,0a1.11,1.11,0,0,0-.28-.71,1.14,1.14,0,0,0-1.77.06.49.49,0,0,0-.08.12,1.07,1.07,0,0,0-.15.56,1.14,1.14,0,1,0,2.28,0,.09.09,0,0,0,0,0m0,0a1.11,1.11,0,0,0-.28-.71,1.14,1.14,0,0,0-1.77.06.49.49,0,0,0-.08.12,1.07,1.07,0,0,0-.15.56,1.14,1.14,0,1,0,2.28,0,.09.09,0,0,0,0,0m0,0a1.11,1.11,0,0,0-.28-.71,1.14,1.14,0,0,0-1.77.06.49.49,0,0,0-.08.12,1.07,1.07,0,0,0-.15.56,1.14,1.14,0,1,0,2.28,0,.09.09,0,0,0,0,0m0,0a1.11,1.11,0,0,0-.28-.71,1.14,1.14,0,0,0-1.77.06.49.49,0,0,0-.08.12,1.07,1.07,0,0,0-.15.56,1.14,1.14,0,1,0,2.28,0,.09.09,0,0,0,0,0m0,0a1.11,1.11,0,0,0-.28-.71,1.14,1.14,0,0,0-1.77.06.49.49,0,0,0-.08.12,1.07,1.07,0,0,0-.15.56,1.14,1.14,0,1,0,2.28,0,.09.09,0,0,0,0,0m0,0a1.11,1.11,0,0,0-.28-.71,1.14,1.14,0,0,0-1.77.06.49.49,0,0,0-.08.12,1.07,1.07,0,0,0-.15.56,1.14,1.14,0,1,0,2.28,0,.09.09,0,0,0,0,0m0,0a1.11,1.11,0,0,0-.28-.71,1.14,1.14,0,0,0-1.77.06.49.49,0,0,0-.08.12,1.07,1.07,0,0,0-.15.56,1.14,1.14,0,1,0,2.28,0,.09.09,0,0,0,0,0"/><path class="cls-1" d="M278.83,34.77A91.8,91.8,0,0,0,259.92,32c-.85,0-1.71-.08-2.57-.11-1.52,0-3-.07-4.59-.07s-3,0-4.51.06c-3.85.1-7.75.33-11.65.66-2.46.21-4.92.46-7.36.74h-.06l-.78.09-2.65.32-.27,0-2.94.38-.53.08h-.12l-.54.08-1.19.17a198.67,198.67,0,0,0-23.76,5,186.41,186.41,0,0,0-47.62,20.14l-3,.51-1.2.2-1.19.21-.81.13-19.79,3.36V93c8.32,0,35.31.18,62.48.18,22.83,0,45.77-.1,57.88-.42,3.68-.1,6.36-.22,7.72-.37a56.36,56.36,0,0,0,7.73-1.26c4.79-1.2,5-2.48,5-2.48s-1.66-4.38-4.78-5.76a4.81,4.81,0,0,0-1.51-.39l-.4,0h-.12l-.49,0a12.49,12.49,0,0,1-1.82.19h-.26c-5.7,0-5.47-5.21-5.06-7.6.11-.61.16-1.23.2-1.85a4.85,4.85,0,0,1,.27-1.21,11.32,11.32,0,0,1,.6-1.38,58.32,58.32,0,0,1,7.07-9.77c.82-1,1.69-2,2.57-3,8-9,17.62-18.29,17.62-18.29s4.65-4,1.3-4.9M238.89,81.58l-.92-.33a9.62,9.62,0,0,1-.68,1,7.4,7.4,0,0,1-1.66,1.61,7.17,7.17,0,0,1-4.23,1.29h0a7.21,7.21,0,0,1-6.52-3.92l-.92.34c-.13-2-.26-3.91-.39-5.9l3.55,4.72-.89.33c.28,1.14,3,2.95,4.41,3V71.28h-4.23V70h4.56v0a2.05,2.05,0,0,1-1.5-1.44,1.91,1.91,0,0,1-.08-.55c0-.07,0-.14,0-.21h0a1.89,1.89,0,0,1,.26-.8.71.71,0,0,1,.1-.15,2,2,0,0,1,.65-.63l-.21-.22a.69.69,0,0,1-.1-.14h0a.18.18,0,0,0,0-.06l0-.07a1.22,1.22,0,0,1-.09-.36c0-.12,0-.23,0-.35v-.06c0-.17,0-.35,0-.53s0-.24,0-.37,0-.42,0-.64a.45.45,0,0,1,0-.1,0,0,0,0,1,0,0,.39.39,0,0,1,0-.09,1.07,1.07,0,0,1,.2-.42,1.12,1.12,0,0,1,.71-.46.22.22,0,0,0,.15-.06.13.13,0,0,0,0-.09.06.06,0,0,0,0,0h0c0-.05-.05-.08-.15-.1a1.07,1.07,0,0,1-.72-.44,1.1,1.1,0,0,1-.2-.48h0c0-.09,0-.18,0-.27,0-.26,0-.53,0-.78s0-.51,0-.76h0c0-.09,0-.18,0-.27v0a1.37,1.37,0,0,1,.12-.39.24.24,0,0,0,0-.07h0l.06-.1.06-.08.15-.16.06-.05h0a1,1,0,0,1,.42-.18c.15,0,.19-.08.16-.19l-.51-.18a.88.88,0,0,1-.39-.31,1,1,0,0,1-.17-.55c0-.33,0-.66,0-1,0-.17,0-.34,0-.51v0c0-.14,0-.28,0-.43a1.22,1.22,0,0,1,.22-.76,1.14,1.14,0,0,1,.85-.46c0-.13,0-.21-.14-.23a1.1,1.1,0,0,1-.72-.45,1,1,0,0,1-.21-.64c0-.64,0-1.28,0-1.92v0a1.07,1.07,0,0,1,.17-.52,3,3,0,0,1-.77-.5,3.05,3.05,0,0,1-.9-1.44,3,3,0,0,1-.13-.87,3.08,3.08,0,0,1,6.16,0,3,3,0,0,1,0,.49,3.08,3.08,0,0,1-.94,1.77,3,3,0,0,1-.83.55,1.08,1.08,0,0,1,.16.57c0,.31,0,.61,0,.91s0,.66,0,1a1,1,0,0,1-.21.63,1.07,1.07,0,0,1-.72.46c-.17,0-.17.1-.15.24a1.11,1.11,0,0,1,.72.28,1.15,1.15,0,0,1,.16.19,1.09,1.09,0,0,1,.19.64v2a1.14,1.14,0,0,1-.19.66.37.37,0,0,1-.08.1l-.12.11a1.07,1.07,0,0,1-.67.25c0,.19,0,.21.14.23a1,1,0,0,1,.42.18h0l.05,0,.21.21,0,.07,0,.07a.06.06,0,0,0,0,.06.77.77,0,0,1,.13.39.11.11,0,0,1,0,.05v.2c0,.26,0,.5,0,.75V60c0,.3,0,.6,0,.9V61a1.09,1.09,0,0,1-.2.51,1.1,1.1,0,0,1-.72.46c-.07,0-.12,0-.14.06a.11.11,0,0,0,0,.09h0a.09.09,0,0,0,0,.06s0,0,0,0l0,0h0l.1,0a1.13,1.13,0,0,1,.37.14,1.17,1.17,0,0,1,.37.36l0,0a1,1,0,0,1,.16.54v0c0,.34,0,.67,0,1s0,.39,0,.58V65c0,.08,0,.16,0,.24a2.5,2.5,0,0,1-.14.5s0,0,0,.08h0l-.09.11h0l-.16.16a1.76,1.76,0,0,1,.25.17,2.08,2.08,0,0,1,.42.44,2.11,2.11,0,0,1,.33.78,2,2,0,0,1,0,.89h0a.16.16,0,0,1,0,.05,2,2,0,0,1-.28.63,2.13,2.13,0,0,1-1.24.84l0,0h4.61v1.32h-4.34V83.7h.1a5.25,5.25,0,0,0,2.68-1.07,5,5,0,0,0,1.74-1.9l-.87-.33.69-.92,2.8-3.71.05,0c-.12,1.92-.24,3.85-.37,5.8"/><path class="cls-1" d="M160.9,24.7l0,0-.39.16.17-9.48a24.6,24.6,0,0,0-.44-5.11L158.31.58,160.13,0l4.38,9,1.13,2.34,5.11,9.57"/><path class="cls-1" d="M160.86,24.71l-.39.17h0l.39-.16"/><path class="cls-1" d="M160.48,24.88h0l.39-.17-.39.16"/><rect class="cls-1" x="122.5" y="5.61" width="2.07" height="87.21"/><polygon class="cls-1" points="10.58 6.13 13.17 20.76 13.24 20.76 15.83 6.13 25.03 6.13 25.03 30.82 19.02 30.82 19.02 12.42 18.95 12.42 15.52 30.82 10.89 30.82 7.47 12.42 7.4 12.42 7.4 30.82 1.38 30.82 1.38 6.13 10.58 6.13"/><path class="cls-1" d="M40,6.13l6,24.69H39.14l-.66-4.32H33.36l-.66,4.32H26L31.88,6.13Zm-4.08,5L34.13,21.66h3.6L36,11.18Z"/><path class="cls-1" d="M57.1,6.13a8.94,8.94,0,0,1,3.12.48A5.35,5.35,0,0,1,62.33,8a5.29,5.29,0,0,1,1.17,2.09,9.15,9.15,0,0,1,.36,2.63,7.21,7.21,0,0,1-1,4,4.42,4.42,0,0,1-3.2,1.87v.07a3.83,3.83,0,0,1,3.17,1.63,7.55,7.55,0,0,1,.86,3.91v3.11c0,.34,0,.67,0,1a7.86,7.86,0,0,0,.11.85,2.23,2.23,0,0,0,.17.59l.28.4a1.35,1.35,0,0,0,.45.36v.35H57.91a4.28,4.28,0,0,1-.36-1.14,13.12,13.12,0,0,1-.17-1.31q-.05-.66-.07-1.26c0-.4,0-.73,0-1V24.46a12,12,0,0,0-.1-1.73,2.75,2.75,0,0,0-.36-1.09,1.38,1.38,0,0,0-.66-.55,2.71,2.71,0,0,0-1-.16H53.49v9.89H47.06V6.13ZM54.77,16.57a2.47,2.47,0,0,0,2-.81,3.28,3.28,0,0,0,.66-2.13,3.12,3.12,0,0,0-.64-2.21,2.83,2.83,0,0,0-2.09-.66H53.49v5.81Z"/><rect class="cls-1" x="66.66" y="6.13" width="6.43" height="24.69"/><polygon class="cls-1" points="83.09 6.13 87.23 21.34 87.3 21.34 87.3 6.13 93.32 6.13 93.32 30.82 86.27 30.82 81.98 15.57 81.91 15.57 81.91 30.82 75.89 30.82 75.89 6.13 83.09 6.13"/><polygon class="cls-1" points="110.99 6.13 110.99 11.38 102.8 11.38 102.8 15.6 110.47 15.6 110.47 20.65 102.8 20.65 102.8 25.56 111.3 25.56 111.3 30.82 96.36 30.82 96.36 6.13 110.99 6.13"/><path class="cls-1" d="M13.34,44.11a1.86,1.86,0,0,0-1.77-1,2.22,2.22,0,0,0-1.52.5,3.33,3.33,0,0,0-.86,1.77,19.26,19.26,0,0,0-.39,3.43Q8.71,51,8.71,54.24t.09,5.42a19.23,19.23,0,0,0,.39,3.43,3.33,3.33,0,0,0,.86,1.77,2.22,2.22,0,0,0,1.52.5A2,2,0,0,0,12.84,65a2.48,2.48,0,0,0,.77-1.29A11.82,11.82,0,0,0,14,61.25q.11-1.52.11-3.83h8.17v2.41a14.65,14.65,0,0,1-.91,5.58A8.72,8.72,0,0,1,19,68.83a8,8,0,0,1-3.43,1.68,18.19,18.19,0,0,1-4,.43,16.57,16.57,0,0,1-5.81-.86,7,7,0,0,1-3.54-2.88A13.48,13.48,0,0,1,.48,62,53.68,53.68,0,0,1,0,54.24a46.11,46.11,0,0,1,.57-7.85A13.32,13.32,0,0,1,2.5,41.17a7.69,7.69,0,0,1,3.58-2.88,14.91,14.91,0,0,1,5.49-.88,14.28,14.28,0,0,1,4.86.73,8.17,8.17,0,0,1,3.25,2.07,8.07,8.07,0,0,1,1.82,3.22,14.75,14.75,0,0,1,.57,4.24v2H13.89V47.88a8.82,8.82,0,0,0-.54-3.77"/><polygon class="cls-1" points="33.77 38.03 33.77 49.92 38.94 49.92 38.94 38.03 47.38 38.03 47.38 70.44 38.94 70.44 38.94 57.09 33.77 57.09 33.77 70.44 25.32 70.44 25.32 38.03 33.77 38.03"/><path class="cls-1" d="M67.3,38l7.9,32.4h-9l-.86-5.67H58.63l-.86,5.67H48.92L56.68,38Zm-5.35,6.63L59.63,58.41h4.72L62,44.66Z"/><rect class="cls-1" x="76.29" y="38.03" width="8.44" height="32.4"/><polygon class="cls-1" points="97.84 38.03 103.29 58 103.38 58 103.38 38.03 111.28 38.03 111.28 70.44 102.02 70.44 96.39 50.42 96.3 50.42 96.3 70.44 88.41 70.44 88.41 38.03 97.84 38.03"/><path class="cls-1" d="M7.79,77.79c2.94,0,5.12,1.23,5.12,4.43,0,3.48-2.25,4.65-5.25,4.65H3.49v6.31h-2V77.79Zm-4.3,7.37H7.4c2,0,3.48-.54,3.48-2.81,0-2.46-1.75-2.81-3.76-2.81H3.49Z"/><polygon class="cls-1" points="25.6 93.17 15.4 93.17 15.4 77.79 17.43 77.79 17.43 91.4 25.6 91.4 25.6 93.17"/><path class="cls-1" d="M39.86,93.17H37.59l-1.71-4.71H29.43l-1.75,4.71H25.52l6-15.38h2.29ZM32.67,79.74,30,86.84h5.27Z"/><polygon class="cls-1" points="50.09 79.56 44.92 79.56 44.92 93.17 42.89 93.17 42.89 79.56 37.73 79.56 37.73 77.79 50.09 77.79 50.09 79.56"/><polygon class="cls-1" points="61.95 79.56 53.87 79.56 53.87 84.36 61 84.36 61 86.07 53.87 86.07 53.87 93.17 51.84 93.17 51.84 77.79 61.95 77.79 61.95 79.56"/><path class="cls-1" d="M78.09,85.35c0,4.52-2.49,8.19-7.37,8.19s-7.37-3.76-7.37-8.23c0-4.8,2.87-7.89,7.35-7.89,4.78,0,7.39,3.35,7.39,7.93m-12.71.11c0,3.85,2.1,6.33,5.36,6.33s5.32-2.51,5.32-6.33S74,79.2,70.7,79.2c-3.63,0-5.31,3-5.31,6.27"/><path class="cls-1" d="M87.41,77.79c2.89,0,5.16,1,5.16,4.26a3.77,3.77,0,0,1-2.64,3.74c2.16.45,2.25,1.92,2.33,3.78.07,1.23.07,2.79.89,3.61H90.82c-.5-.78-.48-2.51-.52-3.39-.13-2.59-.8-3.26-3.59-3.26h-4v6.65h-2V77.79ZM82.67,84.9H86.5c2,0,4-.19,4-2.72,0-2.29-1.69-2.66-3.5-2.66H82.67Z"/><polygon class="cls-1" points="98.28 77.79 103.23 90.82 108 77.79 110.83 77.79 110.83 93.17 108.91 93.17 108.91 80.34 104.09 93.17 102.32 93.17 97.41 80.34 97.41 93.17 95.47 93.17 95.47 77.79 98.28 77.79"/></g></g></svg>