<svg xmlns="http://www.w3.org/2000/svg" viewBox="0 0 280.05 93.54"><defs><style>.cls-1{fill:#fff}</style></defs><title>marine_logo_2</title><g id="Слой_2" data-name="Слой 2"><g id="Layer_1" data-name="Layer 1"><path class="cls-1" d="M204 27.36l-8.18-7.85S163.56 24 140.29 39.24c0 0 41.9-17 52.24-15.78z"/><path class="cls-1" d="M229.58 40.16L219 23.2s-44.92 7.06-75.08 24.39c0 0 59.28-20.25 72.1-15.68zm27.56 42.35a4.79 4.79 0 0 1 1.51.39h-1.51zM158.18 8.09H122.5V5.53h34.64m7.72 0h94.85v23.3c-.85 0-1.7-.08-2.57-.1V8.09h-90.57m93.14 54.77v17a7.7 7.7 0 0 0-2.57-.57V66c.74-.93 1.58-2 2.57-3.12m-27.61 1.39v1.04a.34.34 0 0 1-.21.32h-.09a.06.06 0 0 1-.05 0 .44.44 0 0 1 0-.09.91.91 0 0 0-.1-.32.29.29 0 0 0-.24-.13h-.09a.39.39 0 0 0-.28.32v.06l-.06.16c-.08-.05-.19-.08-.24-.15a.38.38 0 0 1-.06-.15.21.21 0 0 1 0-.06v-1.9a.38.38 0 0 1 .19-.34.26.26 0 0 1 .14 0v.16a.91.91 0 0 0 0 .12.57.57 0 0 0 .06.17.29.29 0 0 0 .14.09h.14c.17 0 .32-.1.35-.38 0-.07 0-.13.05-.19h.25a1.41 1.41 0 0 1 .06.3v.94m.04-13.32v1.26a.34.34 0 0 1-.21.32h-.05a.2.2 0 0 1 0-.08.91.91 0 0 0-.1-.32.29.29 0 0 0-.24-.14h-.09a.38.38 0 0 0-.27.29v.08c0 .07-.05.13-.07.2s-.19-.08-.24-.16a.48.48 0 0 1-.07-.26v-1.77c0-.25.07-.37.24-.43h.08c.05 0 .06 0 .07.12a.7.7 0 0 0 .11.33.27.27 0 0 0 .23.12h.09a.38.38 0 0 0 .26-.29.34.34 0 0 1 0-.08c0-.06 0-.13.06-.19l.24.08a1.37 1.37 0 0 1 .08.29v.68m-.12 3.71v1.85a.39.39 0 0 1-.19.38.15.15 0 0 1-.09 0h-.05a.34.34 0 0 0 0-.08c0-.22-.06-.41-.35-.41a.32.32 0 0 0-.35.29 1 1 0 0 0 0 .2.16.16 0 0 1 0 .06.3.3 0 0 1-.14 0 .37.37 0 0 1-.21-.36v-1.97a.39.39 0 0 1 .12-.3l.06-.05a.26.26 0 0 1 .14 0v.06a.24.24 0 0 1 0 .06.42.42 0 0 0 0 .13.3.3 0 0 0 .21.28h.13a.29.29 0 0 0 .13 0 .38.38 0 0 0 .22-.35.45.45 0 0 1 0-.12v-.08l.26.09v.1a.74.74 0 0 1 0 .2v.08m.11 4.32v1.85c0 .21-.07.34-.21.39h-.16v-.07a.39.39 0 0 1 0-.08.8.8 0 0 0-.1-.3.33.33 0 0 0-.26-.1.31.31 0 0 0-.37.25v.07a1.2 1.2 0 0 0 0 .22.35.35 0 0 1-.35-.36v-1.86c0-.25.07-.37.24-.44h.13a.32.32 0 0 1 0 .09.7.7 0 0 0 .11.33.27.27 0 0 0 .23.12h.09a.37.37 0 0 0 .26-.28.36.36 0 0 1 0-.09 1.16 1.16 0 0 1 0-.15l.24.08a1.34 1.34 0 0 1 .08.3v.05m.5-12.08a1.12 1.12 0 0 0-.28-.71 1.14 1.14 0 0 0-1.77.07.47.47 0 0 0-.08.12 1.07 1.07 0 0 0-.15.57 1.14 1.14 0 1 0 2.28 0m0 21a1.11 1.11 0 0 0-.28-.71 1.14 1.14 0 0 0-1.77.06.49.49 0 0 0-.08.12 1.07 1.07 0 0 0-.15.56 1.14 1.14 0 1 0 2.28 0m0 0a1.11 1.11 0 0 0-.28-.71 1.14 1.14 0 0 0-1.77.06.49.49 0 0 0-.08.12 1.07 1.07 0 0 0-.15.56 1.14 1.14 0 1 0 2.28 0m0 0a1.11 1.11 0 0 0-.28-.71 1.14 1.14 0 0 0-1.77.06.49.49 0 0 0-.08.12 1.07 1.07 0 0 0-.15.56 1.14 1.14 0 1 0 2.28 0m0 0a1.11 1.11 0 0 0-.28-.71 1.14 1.14 0 0 0-1.77.06.49.49 0 0 0-.08.12 1.07 1.07 0 0 0-.15.56 1.14 1.14 0 1 0 2.28 0m0 0a1.11 1.11 0 0 0-.28-.71 1.14 1.14 0 0 0-1.77.06.49.49 0 0 0-.08.12 1.07 1.07 0 0 0-.15.56 1.14 1.14 0 1 0 2.28 0m0 0a1.11 1.11 0 0 0-.28-.71 1.14 1.14 0 0 0-1.77.06.49.49 0 0 0-.08.12 1.07 1.07 0 0 0-.15.56 1.14 1.14 0 1 0 2.28 0m0 0a1.11 1.11 0 0 0-.28-.71 1.14 1.14 0 0 0-1.77.06.49.49 0 0 0-.08.12 1.07 1.07 0 0 0-.15.56 1.14 1.14 0 1 0 2.28 0m-1.13-20.13a1.14 1.14 0 0 0 1.14-1.13 1.12 1.12 0 0 0-.28-.71 1.14 1.14 0 0 0-1.77.07.47.47 0 0 0-.08.12 1.07 1.07 0 0 0-.15.57 1.14 1.14 0 0 0 1.14 1.14m.86 19.07a1.14 1.14 0 0 0-1.77.06.49.49 0 0 0-.08.12 1.07 1.07 0 0 0-.15.56 1.14 1.14 0 1 0 2.28 0 1.11 1.11 0 0 0-.28-.71m-.86-19.07a1.14 1.14 0 0 0 1.14-1.22 1.12 1.12 0 0 0-.28-.71 1.14 1.14 0 0 0-1.77.07.47.47 0 0 0-.08.12 1.07 1.07 0 0 0-.15.57 1.14 1.14 0 0 0 1.14 1.14m.86 19.07a1.14 1.14 0 0 0-1.77.06.49.49 0 0 0-.08.12 1.07 1.07 0 0 0-.15.56 1.14 1.14 0 1 0 2.28 0 1.11 1.11 0 0 0-.28-.71m.28.71a1.11 1.11 0 0 0-.28-.71 1.14 1.14 0 0 0-1.77.06.49.49 0 0 0-.08.12 1.07 1.07 0 0 0-.15.56 1.14 1.14 0 1 0 2.28 0m0 0a1.11 1.11 0 0 0-.28-.71 1.14 1.14 0 0 0-1.77.06.49.49 0 0 0-.08.12 1.07 1.07 0 0 0-.15.56 1.14 1.14 0 1 0 2.28 0m0 0a1.11 1.11 0 0 0-.28-.71 1.14 1.14 0 0 0-1.77.06.49.49 0 0 0-.08.12 1.07 1.07 0 0 0-.15.56 1.14 1.14 0 1 0 2.28 0m0 0a1.11 1.11 0 0 0-.28-.71 1.14 1.14 0 0 0-1.77.06.49.49 0 0 0-.08.12 1.07 1.07 0 0 0-.15.56 1.14 1.14 0 1 0 2.28 0m0 0a1.11 1.11 0 0 0-.28-.71 1.14 1.14 0 0 0-1.77.06.49.49 0 0 0-.08.12 1.07 1.07 0 0 0-.15.56 1.14 1.14 0 1 0 2.28 0m0 0a1.11 1.11 0 0 0-.28-.71 1.14 1.14 0 0 0-1.77.06.49.49 0 0 0-.08.12 1.07 1.07 0 0 0-.15.56 1.14 1.14 0 1 0 2.28 0m0 0a1.11 1.11 0 0 0-.28-.71 1.14 1.14 0 0 0-1.77.06.49.49 0 0 0-.08.12 1.07 1.07 0 0 0-.15.56 1.14 1.14 0 1 0 2.28 0m0 0a1.11 1.11 0 0 0-.28-.71 1.14 1.14 0 0 0-1.77.06.49.49 0 0 0-.08.12 1.07 1.07 0 0 0-.15.56 1.14 1.14 0 1 0 2.28 0"/><path class="cls-1" d="M278.83 34.77A91.8 91.8 0 0 0 259.92 32c-.85 0-1.71-.08-2.57-.11-1.52 0-3-.07-4.59-.07s-3 0-4.51.06c-3.85.1-7.75.33-11.65.66-2.46.21-4.92.46-7.36.74h-.06l-.78.09-2.65.32h-.27l-2.94.38-.53.08h-.12l-.54.08-1.19.17a198.67 198.67 0 0 0-23.76 5 186.41 186.41 0 0 0-47.62 20.14l-3 .51-1.2.2-1.19.21-.81.13-19.79 3.36V93c8.32 0 35.31.18 62.48.18 22.83 0 45.77-.1 57.88-.42 3.68-.1 6.36-.22 7.72-.37a56.36 56.36 0 0 0 7.73-1.26c4.79-1.2 5-2.48 5-2.48s-1.66-4.38-4.78-5.76a4.81 4.81 0 0 0-1.51-.39h-1.01a12.49 12.49 0 0 1-1.82.19h-.26c-5.7 0-5.47-5.21-5.06-7.6.11-.61.16-1.23.2-1.85a4.85 4.85 0 0 1 .27-1.21 11.32 11.32 0 0 1 .6-1.38 58.32 58.32 0 0 1 7.07-9.77c.82-1 1.69-2 2.57-3 8-9 17.62-18.29 17.62-18.29s4.65-4 1.3-4.9m-39.9 46.89l-.92-.33a9.62 9.62 0 0 1-.68 1 7.4 7.4 0 0 1-1.66 1.61 7.17 7.17 0 0 1-4.23 1.29 7.21 7.21 0 0 1-6.52-3.92l-.92.34c-.13-2-.26-3.91-.39-5.9l3.55 4.72-.89.33c.28 1.14 3 2.95 4.41 3V71.28h-4.23V70h4.56a2.05 2.05 0 0 1-1.5-1.44 1.91 1.91 0 0 1-.08-.55v-.21a1.89 1.89 0 0 1 .26-.8.71.71 0 0 1 .1-.15 2 2 0 0 1 .65-.63l-.21-.22a.69.69 0 0 1-.1-.14.18.18 0 0 0 0-.06v-.07a1.22 1.22 0 0 1-.09-.36v-1.95a.45.45 0 0 1 0-.1.39.39 0 0 1 0-.09 1.07 1.07 0 0 1 .2-.42 1.12 1.12 0 0 1 .71-.46.22.22 0 0 0 .15-.06.13.13 0 0 0 0-.09c0-.05-.05-.08-.15-.1a1.07 1.07 0 0 1-.72-.44 1.1 1.1 0 0 1-.2-.48V59.1a1.37 1.37 0 0 1 .12-.39.24.24 0 0 0 0-.07l.06-.1.06-.08.15-.16.06-.05a1 1 0 0 1 .42-.18c.15 0 .19-.08.16-.19l-.51-.18a.88.88 0 0 1-.39-.31 1 1 0 0 1-.17-.55V54.9a1.22 1.22 0 0 1 .22-.76 1.14 1.14 0 0 1 .85-.46c0-.13 0-.21-.14-.23a1.1 1.1 0 0 1-.72-.45 1 1 0 0 1-.21-.64v-1.92a1.07 1.07 0 0 1 .17-.52 3 3 0 0 1-.77-.5 3.05 3.05 0 0 1-.9-1.44 3 3 0 0 1-.13-.87 3.08 3.08 0 0 1 6.16 0 3 3 0 0 1 0 .49 3.08 3.08 0 0 1-.94 1.77 3 3 0 0 1-.83.55 1.08 1.08 0 0 1 .16.57v1.91a1 1 0 0 1-.21.63 1.07 1.07 0 0 1-.72.46c-.17 0-.17.1-.15.24a1.11 1.11 0 0 1 .72.28 1.15 1.15 0 0 1 .16.19 1.09 1.09 0 0 1 .19.64v2a1.14 1.14 0 0 1-.19.66.37.37 0 0 1-.08.1l-.12.11a1.07 1.07 0 0 1-.67.25c0 .19 0 .21.14.23a1 1 0 0 1 .42.18h.05l.21.21v.14a.06.06 0 0 0 0 .06.77.77 0 0 1 .13.39.11.11 0 0 1 0 .05v.95V60v1a1.09 1.09 0 0 1-.2.51 1.1 1.1 0 0 1-.72.46c-.07 0-.12 0-.14.06a.11.11 0 0 0 0 .09.09.09 0 0 0 0 .06h.1a1.13 1.13 0 0 1 .37.14 1.17 1.17 0 0 1 .37.36 1 1 0 0 1 .16.54v2.02a2.5 2.5 0 0 1-.14.5v.08l-.09.11-.16.16a1.76 1.76 0 0 1 .25.17 2.08 2.08 0 0 1 .42.44 2.11 2.11 0 0 1 .33.78 2 2 0 0 1 0 .89.16.16 0 0 1 0 .05 2 2 0 0 1-.28.63 2.13 2.13 0 0 1-1.24.84h4.61v1.32h-4.34V83.7h.1a5.25 5.25 0 0 0 2.68-1.07 5 5 0 0 0 1.74-1.9l-.87-.33.69-.92 2.8-3.71h.05c-.12 1.92-.24 3.85-.37 5.8M160.9 24.7l-.39.16.17-9.48a24.6 24.6 0 0 0-.44-5.11L158.31.58l1.82-.58 4.38 9 1.13 2.34 5.11 9.57"/><path class="cls-1" d="M160.86 24.71l-.39.17.39-.16"/><path class="cls-1" d="M160.48 24.88l.39-.17-.39.16M122.5 5.61h2.07v87.21h-2.07zm-111.92.52l2.59 14.63h.07l2.59-14.63h9.2v24.69h-6.01v-18.4h-.07l-3.43 18.4h-4.63l-3.42-18.4H7.4v18.4H1.38V6.13h9.2zm29.42 0l6 24.69h-6.86l-.66-4.32h-5.12l-.66 4.32H26l5.88-24.69zm-4.08 5l-1.79 10.53h3.6L36 11.18zm21.18-5a8.94 8.94 0 0 1 3.12.48A5.35 5.35 0 0 1 62.33 8a5.29 5.29 0 0 1 1.17 2.09 9.15 9.15 0 0 1 .36 2.63 7.21 7.21 0 0 1-1 4 4.42 4.42 0 0 1-3.2 1.87v.07a3.83 3.83 0 0 1 3.17 1.63 7.55 7.55 0 0 1 .86 3.91v4.11a7.86 7.86 0 0 0 .11.85 2.23 2.23 0 0 0 .17.59l.28.4a1.35 1.35 0 0 0 .45.36v.35h-6.79a4.28 4.28 0 0 1-.36-1.14 13.12 13.12 0 0 1-.17-1.31q-.05-.66-.07-1.26v-2.69a12 12 0 0 0-.1-1.73 2.75 2.75 0 0 0-.36-1.09 1.38 1.38 0 0 0-.66-.55 2.71 2.71 0 0 0-1-.16h-1.7v9.89h-6.43V6.13zm-2.33 10.44a2.47 2.47 0 0 0 2-.81 3.28 3.28 0 0 0 .66-2.13 3.12 3.12 0 0 0-.64-2.21 2.83 2.83 0 0 0-2.09-.66h-1.21v5.81zM66.66 6.13h6.43v24.69h-6.43zm16.43 0l4.14 15.21h.07V6.13h6.02v24.69h-7.05l-4.29-15.25h-.07v15.25h-6.02V6.13h7.2zm27.9 0v5.25h-8.19v4.22h7.67v5.05h-7.67v4.91h8.5v5.26H96.36V6.13h14.63zM13.34 44.11a1.86 1.86 0 0 0-1.77-1 2.22 2.22 0 0 0-1.52.5 3.33 3.33 0 0 0-.86 1.77 19.26 19.26 0 0 0-.39 3.43q-.09 2.19-.09 5.43t.09 5.42a19.23 19.23 0 0 0 .39 3.43 3.33 3.33 0 0 0 .86 1.77 2.22 2.22 0 0 0 1.52.5 2 2 0 0 0 1.27-.36 2.48 2.48 0 0 0 .77-1.29 11.82 11.82 0 0 0 .39-2.46q.11-1.52.11-3.83h8.17v2.41a14.65 14.65 0 0 1-.91 5.58A8.72 8.72 0 0 1 19 68.83a8 8 0 0 1-3.43 1.68 18.19 18.19 0 0 1-4 .43 16.57 16.57 0 0 1-5.81-.86 7 7 0 0 1-3.54-2.88A13.48 13.48 0 0 1 .48 62 53.68 53.68 0 0 1 0 54.24a46.11 46.11 0 0 1 .57-7.85 13.32 13.32 0 0 1 1.93-5.22 7.69 7.69 0 0 1 3.58-2.88 14.91 14.91 0 0 1 5.49-.88 14.28 14.28 0 0 1 4.86.73 8.17 8.17 0 0 1 3.25 2.07 8.07 8.07 0 0 1 1.82 3.22 14.75 14.75 0 0 1 .57 4.24v2h-8.18v-1.79a8.82 8.82 0 0 0-.54-3.77m20.42-6.08v11.89h5.17V38.03h8.44v32.41h-8.44V57.09h-5.17v13.35h-8.45V38.03h8.45zM67.3 38l7.9 32.4h-9l-.86-5.67h-6.71l-.86 5.67h-8.85L56.68 38zm-5.35 6.63l-2.32 13.78h4.72L62 44.66zm14.34-6.6h8.44v32.4h-8.44zm21.55 0L103.29 58h.09V38.03h7.9v32.41h-9.26l-5.63-20.02h-.09v20.02h-7.89V38.03h9.43zM7.79 77.79c2.94 0 5.12 1.23 5.12 4.43 0 3.48-2.25 4.65-5.25 4.65H3.49v6.31h-2V77.79zm-4.3 7.37H7.4c2 0 3.48-.54 3.48-2.81 0-2.46-1.75-2.81-3.76-2.81H3.49zm22.11 8.01H15.4V77.79h2.03V91.4h8.17v1.77z"/><path class="cls-1" d="M39.86 93.17h-2.27l-1.71-4.71h-6.45l-1.75 4.71h-2.16l6-15.38h2.29zm-7.19-13.43L30 86.84h5.27zm17.42-.18h-5.17v13.61h-2.03V79.56h-5.16v-1.77h12.36v1.77zm11.86 0h-8.08v4.8H61v1.71h-7.13v7.1h-2.03V77.79h10.11v1.77zm16.14 5.79c0 4.52-2.49 8.19-7.37 8.19s-7.37-3.76-7.37-8.23c0-4.8 2.87-7.89 7.35-7.89 4.78 0 7.39 3.35 7.39 7.93m-12.71.11c0 3.85 2.1 6.33 5.36 6.33s5.32-2.51 5.32-6.33S74 79.2 70.7 79.2c-3.63 0-5.31 3-5.31 6.27m22.02-7.68c2.89 0 5.16 1 5.16 4.26a3.77 3.77 0 0 1-2.64 3.74c2.16.45 2.25 1.92 2.33 3.78.07 1.23.07 2.79.89 3.61h-2.33c-.5-.78-.48-2.51-.52-3.39-.13-2.59-.8-3.26-3.59-3.26h-4v6.65h-2V77.79zm-4.74 7.11h3.83c2 0 4-.19 4-2.72 0-2.29-1.69-2.66-3.5-2.66h-4.33zm15.61-7.11l4.95 13.03L108 77.79h2.83v15.38h-1.92V80.34l-4.82 12.83h-1.77l-4.91-12.83v12.83h-1.94V77.79h2.81z"/></g></g></svg>