<svg version="1.1" id="Layer_1" xmlns="http://www.w3.org/2000/svg" xmlns:xlink="http://www.w3.org/1999/xlink" x="0px" y="0px"
	 viewBox="0 0 17 17" style="enable-background:new 0 0 17 17;" xml:space="preserve">
<style type="text/css">
	.st0{fill:#000046};}
</style>
<path class="st0" d="M15.7,0H1.3C0.6,0,0,0.5,0,1.2v14.5C0,16.5,0.6,17,1.3,17h14.5c0.7,0,1.3-0.5,1.3-1.2V1.2C17,0.5,16.4,0,15.7,0
	z M5,14.5H2.5V6.4H5V14.5z M3.8,5.3C3,5.3,2.3,4.6,2.3,3.8C2.3,3,3,2.3,3.8,2.3c0.8,0,1.5,0.7,1.5,1.5C5.2,4.6,4.6,5.3,3.8,5.3z
	 M14.5,14.5H12v-3.9c0-0.9,0-2.2-1.3-2.2c-1.3,0-1.5,1-1.5,2.1v4H6.6V6.4H9v1.1h0c0.3-0.6,1.2-1.3,2.4-1.3c2.6,0,3,1.7,3,3.9V14.5z"
	/>
</svg>
