<?xml version="1.0" encoding="utf-8"?>
<!-- Generator: Adobe Illustrator 21.1.0, SVG Export Plug-In . SVG Version: 6.00 Build 0)  -->
<svg version="1.1" id="Layer_1" xmlns="http://www.w3.org/2000/svg" xmlns:xlink="http://www.w3.org/1999/xlink" x="0px" y="0px"
	 viewBox="0 0 24 24" style="enable-background:new 0 0 24 24;" xml:space="preserve">
<style type="text/css">
	.st0{fill:#5A5A5A;}
	.st1{fill:#28A9E0;}
	.st2{fill:#F0F0F0;}
	.st3{fill:#D80027;}
	.st4{fill:#0052B4;}
	.st5{fill:#FFDA44;}
	.st6{fill:#A2001D;}
	.st7{fill:#BDBDBD;}
	.st8{fill:#FFFFFF;}
	.st9{fill:#8BC34A;}
</style>
<g>
	<circle class="st3" cx="12.1" cy="11.8" r="10"/>
	<g>
		<polygon class="st5" points="7.6,7.9 8.4,10.6 11.2,10.6 9,12.2 9.8,14.9 7.6,13.3 5.3,14.9 6.2,12.2 3.9,10.6 6.7,10.6 		"/>
		<polygon class="st5" points="14,17.3 13.3,16.5 12.3,16.9 12.9,16 12.2,15.2 13.2,15.5 13.8,14.6 13.9,15.6 14.9,15.9 13.9,16.3 
					"/>
		<polygon class="st5" points="15.3,15 15.6,14 14.7,13.3 15.8,13.3 16.1,12.3 16.4,13.3 17.5,13.3 16.6,13.9 17,14.9 16.1,14.3 		
			"/>
		<polygon class="st5" points="17,9.2 16.6,10.1 17.3,10.9 16.3,10.7 15.8,11.6 15.7,10.6 14.6,10.5 15.6,10 15.4,8.9 16.1,9.7 		
			"/>
		<polygon class="st5" points="14,6.3 13.9,7.4 14.9,7.8 13.9,8 13.8,9.1 13.2,8.2 12.2,8.4 12.9,7.6 12.3,6.7 13.3,7.1 		"/>
	</g>
</g>
</svg>
