<svg id="Layer_1" xmlns="http://www.w3.org/2000/svg" xmlns:xlink="http://www.w3.org/1999/xlink" viewBox="0 0 24 24" style="enable-background:new 0 0 24 24"><style>.st0{fill:#5a5a5a}.st1{fill:#28a9e0}.st2{fill:#f0f0f0}.st3{fill:#d80027}.st4{fill:#0052b4}.st5{fill:#ffda44}.st6{fill:#a2001d}.st7{fill:#bdbdbd}.st8{fill:#fff}.st9{fill:#8bc34a}</style><circle class="st2" cx="12" cy="12" r="10"/><path class="st4" d="M4.1 5.9c-.8 1-1.4 2.2-1.7 3.5h5.2L4.1 5.9z"/><path class="st4" d="M21.7 9.4c-.3-1.3-.9-2.5-1.7-3.5l-3.5 3.5H21.7z"/><path class="st4" d="M2.3 14.6c.3 1.3.9 2.5 1.7 3.5l3.5-3.5H2.3V14.6z"/><path class="st4" d="M18.1 4.1c-1-.8-2.2-1.4-3.5-1.7v5.2l3.5-3.5z"/><path class="st4" d="M5.9 19.9c1 .8 2.2 1.4 3.5 1.7v-5.2L5.9 19.9z"/><path class="st4" d="M9.4 2.3C8.1 2.7 6.9 3.3 5.9 4.1l3.5 3.5V2.3z"/><path class="st4" d="M14.6 21.7c1.3-.3 2.5-.9 3.5-1.7l-3.5-3.5L14.6 21.7v0z"/><path class="st4" d="M16.5 14.6l3.5 3.5c.8-1 1.4-2.2 1.7-3.5H16.5z"/><path class="st3" d="M21.9 10.7h-8.6.0V2.1C12.9 2 12.4 2 12 2c-.4.0-.9.0-1.3.1v8.6.0H2.1C2 11.1 2 11.6 2 12c0 .4.0.9.1 1.3h8.6.0v8.6C11.1 22 11.6 22 12 22c.4.0.9.0 1.3-.1v-8.6.0h8.6C22 12.9 22 12.4 22 12 22 11.6 22 11.1 21.9 10.7z"/><path class="st3" d="M14.6 14.6v0l4.5 4.5c.2-.2.4-.4.6-.6l-3.8-3.8L14.6 14.6v0 0z"/><path class="st3" d="M9.4 14.6v0l-4.5 4.5c.2.2.4.4.6.6l3.8-3.8L9.4 14.6v0z"/><path class="st3" d="M9.4 9.4v0L4.9 4.9C4.7 5.1 4.5 5.3 4.3 5.6l3.8 3.8L9.4 9.4v0z"/><path class="st3" d="M14.6 9.4v0l4.5-4.5c-.2-.2-.4-.4-.6-.6l-3.8 3.8V9.4z"/></svg>